<svg width="100%" height="100%" viewBox="0 0 112 112" version="1.1" xmlns="http://www.w3.org/2000/svg" xmlns:xlink="http://www.w3.org/1999/xlink" xml:space="preserve" xmlns:serif="http://www.serif.com/" style="fill-rule:evenodd;clip-rule:evenodd;stroke-linejoin:round;stroke-miterlimit:1.41421;">
    <g>
        <path d="M95.183,16.33c-10.088,-10.09 -24.029,-16.33 -39.423,-16.33c-15.398,0 -29.338,6.24 -39.428,16.33c-10.092,10.09 -16.332,24.032 -16.332,39.428c0,15.396 6.24,29.338 16.33,39.428c10.09,10.092 24.032,16.33 39.43,16.33c15.396,0 29.338,-6.243 39.425,-16.33c10.09,-10.092 16.33,-24.032 16.33,-39.428c0,-15.396 -6.242,-29.338 -16.332,-39.428Zm-1.84,77.013c-9.618,9.618 -22.907,15.568 -37.585,15.568c-14.678,0 -27.969,-5.95 -37.588,-15.568c-9.619,-9.618 -15.568,-22.907 -15.568,-37.585c0,-14.678 5.95,-27.967 15.568,-37.585c9.618,-9.618 22.907,-15.569 37.586,-15.569c14.678,0 27.967,5.95 37.585,15.568c9.618,9.618 15.568,22.907 15.568,37.585c0.002,14.679 -5.948,27.968 -15.566,37.586Z" style="fill:#35495c;fill-rule:nonzero;" />
        <path d="M103.723,55.293c-0.251,-26.278 -21.627,-47.503 -47.963,-47.503c-26.339,0 -47.717,21.227 -47.963,47.505l21.994,-21.994l7.376,7.376l-16.095,16.096l69.377,0l-16.096,-16.095l7.376,-7.376l21.994,21.991Zm-47.965,-8.243l-20.438,-21.446l13.582,0l0,-10.57c0,-2.744 3.085,-4.993 6.856,-4.993c3.771,0 6.856,2.247 6.856,4.993l0,10.571l13.582,0l-20.438,21.445Z" style="fill:#35495c;fill-rule:nonzero;" />
        <path d="M61.719,82.754c-1.09,-0.709 -2.47,-1.345 -4.135,-1.898c-1.273,-0.439 -2.321,-0.853 -3.139,-1.252c-0.811,-0.395 -1.41,-0.834 -1.793,-1.296c-0.393,-0.471 -0.576,-1.036 -0.576,-1.684c0,-0.518 0.156,-1.011 0.49,-1.478c0.328,-0.465 0.841,-0.853 1.538,-1.145c0.704,-0.297 1.6,-0.458 2.713,-0.462c0.897,0.005 1.715,0.077 2.456,0.205c0.732,0.132 1.38,0.293 1.935,0.476c0.562,0.19 1.018,0.369 1.375,0.539l1.238,-3.733c-0.748,-0.376 -1.687,-0.688 -2.825,-0.941c-0.967,-0.214 -2.072,-0.337 -3.329,-0.379l0,-3.863l-3.404,0l0,4.056c-0.546,0.088 -1.069,0.207 -1.564,0.351c-1.252,0.369 -2.328,0.883 -3.218,1.552c-0.883,0.667 -1.566,1.447 -2.035,2.342c-0.472,0.894 -0.704,1.88 -0.713,2.939c0.007,1.227 0.328,2.307 0.962,3.241c0.634,0.934 1.538,1.745 2.704,2.44c1.162,0.692 2.548,1.289 4.152,1.791c1.204,0.386 2.184,0.788 2.932,1.201c0.748,0.411 1.296,0.864 1.638,1.359c0.349,0.495 0.521,1.069 0.513,1.71c0,0.704 -0.207,1.315 -0.611,1.842c-0.4,0.52 -0.99,0.929 -1.766,1.22c-0.776,0.293 -1.724,0.437 -2.834,0.446c-0.904,-0.007 -1.78,-0.084 -2.635,-0.23c-0.848,-0.153 -1.645,-0.351 -2.379,-0.597c-0.741,-0.246 -1.389,-0.513 -1.952,-0.813l-1.196,3.889c0.541,0.297 1.217,0.564 2.044,0.811c0.827,0.249 1.738,0.446 2.734,0.597c0.99,0.146 2.007,0.221 3.041,0.23l0.181,-0.002l0,3.994l3.404,0l0,-4.314c0.432,-0.083 0.843,-0.183 1.234,-0.299c1.366,-0.411 2.5,-0.971 3.396,-1.689c0.904,-0.711 1.573,-1.536 2.016,-2.465c0.441,-0.929 0.662,-1.912 0.662,-2.96c0,-1.227 -0.263,-2.312 -0.804,-3.245c-0.542,-0.948 -1.356,-1.773 -2.45,-2.486Z" style="fill:#35495c;fill-rule:nonzero;" />
    </g>
</svg>