<svg xmlns="http://www.w3.org/2000/svg" xmlns:xlink="http://www.w3.org/1999/xlink" xmlns:serif="http://www.serif.com/" width="100%" height="100%" viewBox="0 0 133 24" version="1.1" xml:space="preserve" style="fill-rule:evenodd;clip-rule:evenodd;stroke-linecap:round;stroke-linejoin:round;stroke-miterlimit:10;"> <g> <g> <path d="M10.674,15.82L4.681,10.5C3.785,9.704 3.785,8.306 4.679,7.51L10.664,2.182C11.422,1.508 12.564,1.508 13.322,2.18L19.315,7.5C20.211,8.296 20.211,9.694 19.317,10.49L13.332,15.818C12.574,16.493 11.432,16.493 10.674,15.82Z" style="fill:none;stroke:rgb(0,127,255);stroke-width:1.5px;"></path> </g> </g> <g> <g> <path d="M17.625,11.996L19.319,13.5C20.215,14.296 20.215,15.694 19.321,16.49L13.336,21.818C12.578,22.493 11.436,22.493 10.678,21.82L4.685,16.5C3.789,15.704 3.789,14.306 4.683,13.51L6.375,12.004" style="fill:none;stroke:rgb(0,127,255);stroke-width:1.5px;"></path> </g> </g> <g transform="matrix(1,0,0,1,0.648727,13.3258)"> <path d="M39.071,-1.244C38.649,-0.858 38.438,-0.273 38.438,0.511L38.438,4.795L36.602,4.795L36.602,-3.705L38.438,-3.705L38.438,-2.277C38.593,-2.627 38.792,-2.919 39.038,-3.152C39.006,-2.692 38.937,-2.252 38.831,-1.831C38.92,-1.64 39.001,-1.444 39.071,-1.244ZM33.355,-1.376C33.877,-1.104 34.285,-0.73 34.579,-0.254C34.874,0.222 35.021,0.772 35.021,1.395C35.021,2.37 34.676,3.18 33.984,3.826C33.293,4.472 32.449,4.795 31.451,4.795L26.351,4.795L26.351,-7.105L31.077,-7.105C32.052,-7.105 32.876,-6.79 33.551,-6.161C34.225,-5.532 34.562,-4.747 34.562,-3.807C34.562,-2.775 34.16,-1.965 33.355,-1.376ZM31.451,2.959C31.905,2.959 32.287,2.798 32.599,2.475C32.91,2.152 33.066,1.758 33.066,1.293C33.066,0.829 32.91,0.435 32.599,0.112C32.287,-0.211 31.905,-0.373 31.451,-0.373L28.306,-0.373L28.306,2.959L31.451,2.959ZM31.077,-5.269L28.306,-5.269L28.306,-2.141L31.077,-2.141C31.508,-2.141 31.871,-2.291 32.165,-2.591C32.46,-2.892 32.607,-3.263 32.607,-3.705C32.607,-4.147 32.46,-4.518 32.165,-4.818C31.871,-5.119 31.508,-5.269 31.077,-5.269Z" style="fill:rgb(19,47,76);"></path> <path d="M44.252,1.297L44.134,1.414C43.778,1.748 43.374,2.018 42.938,2.217L42.938,4.795L42.416,4.795L42.416,-3.705L44.252,-3.705L44.252,1.297ZM38.438,-2.277C38.903,-3.331 39.776,-3.858 41.056,-3.858L41.056,-1.869C40.354,-1.914 39.742,-1.747 39.22,-1.367C38.699,-0.988 38.438,-0.361 38.438,0.511L38.438,4.795L36.602,4.795L36.602,-3.705L38.438,-3.705L38.438,-2.277ZM33.095,-6.522C33.254,-6.417 33.406,-6.296 33.551,-6.161C34.225,-5.532 34.562,-4.747 34.562,-3.807C34.562,-2.775 34.16,-1.965 33.355,-1.376C33.877,-1.104 34.285,-0.73 34.579,-0.254C34.874,0.222 35.021,0.772 35.021,1.395C35.021,2.37 34.676,3.18 33.984,3.826C33.449,4.327 32.821,4.633 32.102,4.745L32.102,2.826C32.284,2.747 32.45,2.629 32.599,2.475C32.91,2.152 33.066,1.758 33.066,1.293C33.066,0.829 32.91,0.435 32.599,0.112C32.45,-0.043 32.284,-0.16 32.102,-0.24L32.102,-2.533L32.165,-2.591C32.46,-2.892 32.607,-3.263 32.607,-3.705C32.607,-4.115 32.481,-4.464 32.226,-4.751C32.382,-5.409 32.683,-6.012 33.095,-6.522ZM44.15,-5.32C43.924,-5.093 43.652,-4.98 43.334,-4.98C43.017,-4.98 42.742,-5.096 42.51,-5.328C42.277,-5.561 42.161,-5.835 42.161,-6.153C42.161,-6.47 42.275,-6.745 42.501,-6.977C42.728,-7.21 43.006,-7.326 43.334,-7.326C43.663,-7.326 43.941,-7.21 44.167,-6.977C44.394,-6.745 44.507,-6.47 44.507,-6.153C44.507,-5.835 44.388,-5.558 44.15,-5.32Z" style="fill:rgb(19,47,76);"></path> <path d="M42.416,4.795L42.416,-3.705L44.252,-3.705L44.252,4.795L42.416,4.795ZM37.916,-3.705L38.438,-3.705L38.438,-2.277C38.903,-3.331 39.776,-3.858 41.056,-3.858L41.056,-1.869C40.354,-1.914 39.742,-1.747 39.22,-1.367C38.699,-0.988 38.438,-0.361 38.438,0.511L38.438,4.795L37.916,4.795L37.916,-3.705ZM48.752,-3.651L48.752,-1.586C48.662,-1.519 48.576,-1.442 48.494,-1.359C47.989,-0.849 47.737,-0.214 47.737,0.545C47.737,1.305 47.989,1.939 48.494,2.449C48.576,2.532 48.662,2.609 48.752,2.676L48.752,4.74C48.168,4.527 47.646,4.188 47.185,3.724C46.329,2.863 45.901,1.803 45.901,0.545C45.901,-0.724 46.329,-1.787 47.185,-2.642C47.646,-3.103 48.168,-3.44 48.752,-3.651ZM44.15,-5.32C43.924,-5.093 43.652,-4.98 43.334,-4.98C43.017,-4.98 42.742,-5.096 42.51,-5.328C42.277,-5.561 42.161,-5.835 42.161,-6.153C42.161,-6.47 42.275,-6.745 42.501,-6.977C42.728,-7.21 43.006,-7.326 43.334,-7.326C43.663,-7.326 43.941,-7.21 44.167,-6.977C44.394,-6.745 44.507,-6.47 44.507,-6.153C44.507,-5.835 44.388,-5.558 44.15,-5.32Z" style="fill:rgb(19,47,76);"></path> <path d="M50.389,5.016C49.109,5.016 48.04,4.586 47.185,3.724C46.329,2.863 45.901,1.803 45.901,0.545C45.901,-0.724 46.329,-1.787 47.185,-2.642C48.04,-3.498 49.109,-3.926 50.389,-3.926C51.217,-3.926 51.97,-3.727 52.65,-3.331C53.33,-2.934 53.84,-2.401 54.18,-1.733L52.599,-0.815C52.407,-1.223 52.115,-1.543 51.724,-1.775C51.333,-2.008 50.882,-2.124 50.372,-2.124C49.624,-2.124 48.998,-1.869 48.494,-1.359C47.989,-0.849 47.737,-0.214 47.737,0.545C47.737,1.305 47.989,1.939 48.494,2.449C48.998,2.959 49.624,3.214 50.372,3.214C50.871,3.214 51.321,3.095 51.724,2.857C52.126,2.619 52.429,2.302 52.633,1.905L54.214,2.806C53.852,3.486 53.33,4.025 52.65,4.421C51.97,4.818 51.217,5.016 50.389,5.016ZM55.54,-6.819C56.257,-6.32 56.868,-5.736 57.376,-5.07L57.376,0.052L58.668,-1.419C58.622,-0.741 58.421,-0.081 58.083,0.508C58.417,1.071 58.624,1.7 58.69,2.349L57.376,0.868L57.376,4.795L55.54,4.795L55.54,-6.819ZM42.416,4.785L42.416,-3.705L44.252,-3.705L44.252,4.795L42.422,4.795L42.416,4.785ZM44.5,-6.285C44.505,-6.242 44.507,-6.198 44.507,-6.153C44.507,-5.835 44.388,-5.558 44.15,-5.32C43.924,-5.093 43.652,-4.98 43.334,-4.98L43.257,-4.983C43.484,-5.275 43.733,-5.554 44.003,-5.824C44.164,-5.986 44.33,-6.14 44.5,-6.285Z" style="fill:rgb(19,47,76);"></path> <path d="M67.55,4.929C67.256,4.988 66.941,5.016 66.607,5.016C65.769,5.016 65.049,4.841 64.448,4.489C63.848,4.138 63.411,3.651 63.139,3.027L64.72,2.109C65.015,2.925 65.644,3.333 66.607,3.333C66.868,3.333 67.093,3.31 67.283,3.263C67.477,3.796 67.569,4.361 67.55,4.929ZM51.04,3.135C51.282,3.077 51.51,2.984 51.724,2.857C52.126,2.619 52.429,2.302 52.633,1.905L54.214,2.806C53.852,3.486 53.33,4.025 52.65,4.421C52.154,4.711 51.619,4.894 51.045,4.971L51.04,4.795L51.04,3.135ZM63.054,4.795L60.861,4.795L57.376,0.868L57.376,4.795L55.54,4.795L55.54,-7.105L57.376,-7.105L57.376,0.052L60.674,-3.705L62.918,-3.705L59.178,0.46L63.054,4.795ZM65.782,1.094C65.553,1.024 65.324,0.949 65.094,0.868C64.641,0.71 64.258,0.446 63.947,0.078C63.635,-0.291 63.479,-0.758 63.479,-1.325C63.479,-2.107 63.777,-2.736 64.372,-3.212C64.967,-3.688 65.706,-3.926 66.59,-3.926C66.878,-3.926 67.152,-3.9 67.414,-3.846C67.432,-3.283 67.345,-2.721 67.153,-2.191C66.982,-2.237 66.795,-2.26 66.59,-2.26C66.239,-2.26 65.944,-2.183 65.706,-2.03C65.468,-1.877 65.349,-1.653 65.349,-1.359C65.349,-1.075 65.505,-0.852 65.817,-0.687C65.913,-0.636 66.016,-0.588 66.127,-0.543L65.22,0.467L65.782,1.094ZM51.04,-3.882C51.616,-3.805 52.153,-3.621 52.65,-3.331C53.33,-2.934 53.84,-2.401 54.18,-1.733L52.599,-0.815C52.407,-1.223 52.115,-1.543 51.724,-1.775C51.513,-1.9 51.286,-1.992 51.04,-2.048L51.04,-3.882Z" style="fill:rgb(19,47,76);"></path> <path d="M65.349,-1.359C65.349,-1.075 65.505,-0.852 65.817,-0.687C66.128,-0.523 66.508,-0.381 66.956,-0.262C67.403,-0.143 67.854,-0.004 68.307,0.154C68.761,0.313 69.143,0.582 69.455,0.962C69.766,1.341 69.922,1.82 69.922,2.398C69.922,3.214 69.608,3.855 68.979,4.319C68.35,4.784 67.559,5.016 66.607,5.016C65.769,5.016 65.049,4.841 64.448,4.489C63.848,4.138 63.411,3.651 63.139,3.027L64.72,2.109C65.015,2.925 65.644,3.333 66.607,3.333C67.571,3.333 68.052,3.016 68.052,2.381C68.052,2.109 67.896,1.888 67.585,1.718C67.273,1.548 66.893,1.404 66.446,1.285C65.998,1.166 65.548,1.027 65.094,0.868C64.641,0.71 64.258,0.446 63.947,0.078C63.635,-0.291 63.479,-0.758 63.479,-1.325C63.479,-2.107 63.777,-2.736 64.372,-3.212C64.967,-3.688 65.706,-3.926 66.59,-3.926C67.293,-3.926 67.919,-3.77 68.469,-3.458C69.018,-3.147 69.441,-2.713 69.735,-2.158L68.188,-1.291C67.894,-1.937 67.361,-2.26 66.59,-2.26C66.239,-2.26 65.944,-2.183 65.706,-2.03C65.468,-1.877 65.349,-1.653 65.349,-1.359ZM59.206,0.491L63.054,4.795L60.861,4.795L58.692,2.351C58.778,1.777 58.976,1.224 59.273,0.725L59.206,0.491ZM66.515,0.536L66.478,0.558C66.514,0.569 66.551,0.574 66.59,0.574L66.644,0.571L66.54,0.527L66.515,0.536ZM59.194,0.443C59.053,-0.104 58.979,-0.693 58.979,-1.325C58.979,-1.482 58.984,-1.637 58.993,-1.79L60.674,-3.705L62.918,-3.705L59.194,0.443Z" style="fill:rgb(19,47,76);"></path> <path d="M84.032,-1.376C84.733,-1.16 85.36,-0.778 85.868,-0.276L85.868,4.795L84.032,4.795L84.032,-1.376ZM77.861,2.925L82.706,2.925L82.706,4.795L75.906,4.795L75.906,-7.105L77.861,-7.105L77.861,2.925Z" style="fill:rgb(19,47,76);"></path> <path d="M90.368,4.171C90.171,3.998 89.992,3.798 89.829,3.571L89.829,4.795L87.993,4.795L87.993,-7.105L89.829,-7.105L89.829,-2.498C89.992,-2.722 90.171,-2.92 90.368,-3.09L90.368,-1.138C90.008,-0.671 89.829,-0.11 89.829,0.545C89.829,1.2 90.008,1.764 90.368,2.234L90.368,4.171ZM84.032,4.795L84.032,-3.705L85.868,-3.705L85.868,4.795L84.032,4.795ZM79.532,2.925L82.706,2.925L82.706,4.795L79.532,4.795L79.532,2.925ZM85.766,-5.32C85.54,-5.093 85.268,-4.98 84.95,-4.98C84.633,-4.98 84.358,-5.096 84.126,-5.328C83.893,-5.561 83.777,-5.835 83.777,-6.153C83.777,-6.47 83.891,-6.745 84.117,-6.977C84.344,-7.21 84.622,-7.326 84.95,-7.326C85.279,-7.326 85.557,-7.21 85.783,-6.977C86.01,-6.745 86.123,-6.47 86.123,-6.153C86.123,-5.835 86.004,-5.558 85.766,-5.32Z" style="fill:rgb(19,47,76);"></path> <path d="M92.804,-3.926C93.972,-3.926 94.969,-3.495 95.796,-2.634C96.624,-1.772 97.037,-0.713 97.037,0.545C97.037,1.792 96.624,2.849 95.796,3.716C94.969,4.583 93.972,5.016 92.804,5.016C91.512,5.016 90.521,4.535 89.829,3.571L89.829,4.795L87.993,4.795L87.993,-7.105L89.829,-7.105L89.829,-2.498C90.521,-3.45 91.512,-3.926 92.804,-3.926ZM84.032,4.795L84.032,-3.705L85.868,-3.705L85.868,4.795L84.032,4.795ZM100.531,-3.705L100.539,-3.691L100.539,-2.277C100.641,-2.509 100.763,-2.715 100.907,-2.895C101.099,-2.413 101.248,-1.91 101.35,-1.386L101.321,-1.367C100.8,-0.988 100.539,-0.361 100.539,0.511L100.539,4.769L100.525,4.795L98.703,4.795L98.703,-3.705L100.531,-3.705ZM90.594,2.5C91.104,3.01 91.745,3.265 92.515,3.265C93.286,3.265 93.926,3.007 94.436,2.492C94.946,1.976 95.201,1.327 95.201,0.545C95.201,-0.237 94.946,-0.886 94.436,-1.401C93.926,-1.917 93.286,-2.175 92.515,-2.175C91.745,-2.175 91.104,-1.917 90.594,-1.401C90.084,-0.886 89.829,-0.237 89.829,0.545C89.829,1.327 90.084,1.979 90.594,2.5ZM85.766,-5.32C85.54,-5.093 85.268,-4.98 84.95,-4.98C84.633,-4.98 84.358,-5.096 84.126,-5.328C83.893,-5.561 83.777,-5.835 83.777,-6.153C83.777,-6.47 83.891,-6.745 84.117,-6.977C84.344,-7.21 84.622,-7.326 84.95,-7.326C85.279,-7.326 85.557,-7.21 85.783,-6.977C86.01,-6.745 86.123,-6.47 86.123,-6.153C86.123,-5.835 86.004,-5.558 85.766,-5.32Z" style="fill:rgb(19,47,76);"></path> <path d="M100.539,-2.277C101.004,-3.331 101.877,-3.858 103.157,-3.858L103.157,-1.869C102.455,-1.914 101.843,-1.747 101.321,-1.367C100.8,-0.988 100.539,-0.361 100.539,0.511L100.539,4.795L98.703,4.795L98.703,-3.705L100.539,-3.705L100.539,-2.277ZM94.203,-3.691C94.79,-3.481 95.321,-3.128 95.796,-2.634C96.624,-1.772 97.037,-0.713 97.037,0.545C97.037,1.792 96.624,2.849 95.796,3.716C95.321,4.213 94.79,4.568 94.203,4.779L94.203,2.7C94.284,2.637 94.362,2.567 94.436,2.492C94.946,1.976 95.201,1.327 95.201,0.545C95.201,-0.237 94.946,-0.886 94.436,-1.401C94.362,-1.477 94.284,-1.546 94.203,-1.609L94.203,-3.691ZM107.657,-3.858L107.657,-2.132C107.112,-2.041 106.643,-1.797 106.251,-1.401C105.741,-0.886 105.486,-0.237 105.486,0.545C105.486,1.011 105.577,1.43 105.759,1.802C105.532,1.963 105.291,2.102 105.039,2.217L105.039,3.864L104.891,3.716C104.064,2.849 103.65,1.792 103.65,0.545C103.65,-0.713 104.064,-1.772 104.891,-2.634C105.664,-3.439 106.586,-3.867 107.656,-3.92L107.657,-3.858Z" style="fill:rgb(19,47,76);"></path> <path d="M110.858,-3.705L112.694,-3.705L112.694,4.795L110.858,4.795L110.858,3.571C110.167,4.535 109.175,5.016 107.883,5.016C106.716,5.016 105.719,4.583 104.891,3.716C104.064,2.849 103.65,1.792 103.65,0.545C103.65,-0.713 104.064,-1.772 104.891,-2.634C105.719,-3.495 106.716,-3.926 107.883,-3.926C109.175,-3.926 110.167,-3.45 110.858,-2.498L110.858,-3.705ZM117.194,-1.134C116.846,-0.75 116.672,-0.202 116.672,0.511L116.672,4.795L114.836,4.795L114.836,-3.705L116.672,-3.705L116.672,-2.277C116.81,-2.589 116.984,-2.855 117.194,-3.074L117.194,-1.134ZM100.156,-3.705L100.539,-3.705L100.539,-2.277C101.004,-3.331 101.877,-3.858 103.157,-3.858L103.157,-1.869C102.455,-1.914 101.843,-1.747 101.321,-1.367C100.8,-0.988 100.539,-0.361 100.539,0.511L100.539,4.795L100.163,4.795C99.492,3.532 99.15,2.116 99.15,0.545C99.15,-1.032 99.491,-2.446 100.156,-3.705ZM106.251,2.5C106.761,3.01 107.402,3.265 108.172,3.265C108.943,3.265 109.583,3.007 110.093,2.492C110.603,1.976 110.858,1.327 110.858,0.545C110.858,-0.237 110.603,-0.886 110.093,-1.401C109.583,-1.917 108.943,-2.175 108.172,-2.175C107.402,-2.175 106.761,-1.917 106.251,-1.401C105.741,-0.886 105.486,-0.237 105.486,0.545C105.486,1.327 105.741,1.979 106.251,2.5Z" style="fill:rgb(19,47,76);"></path> <path d="M116.672,-2.277C117.137,-3.331 118.01,-3.858 119.29,-3.858L119.29,-1.869C118.588,-1.914 117.976,-1.747 117.454,-1.367C116.933,-0.988 116.672,-0.361 116.672,0.511L116.672,4.795L114.836,4.795L114.836,-3.705L116.672,-3.705L116.672,-2.277ZM110.336,-3.075C110.527,-2.908 110.7,-2.715 110.858,-2.498L110.858,-3.705L112.694,-3.705L112.694,4.795L110.858,4.795L110.858,3.571C110.7,3.791 110.527,3.986 110.336,4.155L110.336,2.205C110.685,1.744 110.858,1.19 110.858,0.545C110.858,-0.099 110.685,-0.653 110.336,-1.115L110.336,-3.075ZM123.371,0.024C123.132,0.543 122.793,1.015 122.368,1.414C122.292,1.485 122.214,1.554 122.133,1.619L119.834,-3.705L121.84,-3.705L123.371,0.024Z" style="fill:rgb(19,47,76);"></path> <path d="M126.549,-3.705L128.504,-3.705L125.24,5.067C124.424,7.266 123.042,8.309 121.092,8.195L121.092,6.478C121.67,6.512 122.135,6.39 122.486,6.113C122.838,5.835 123.127,5.402 123.353,4.812L123.438,4.642L119.834,-3.705L121.84,-3.705L124.373,2.466L126.549,-3.705ZM115.336,-3.705L116.672,-3.705L116.672,-2.277C117.137,-3.331 118.01,-3.858 119.29,-3.858L119.29,-1.869C118.588,-1.914 117.976,-1.747 117.454,-1.367C116.968,-1.013 116.708,-0.444 116.679,0.339L115.703,-1.921C115.456,-2.493 115.334,-3.1 115.336,-3.705Z" style="fill:rgb(19,47,76);"></path> </g> </svg>