<?xml version="1.0" encoding="UTF-8"?> <svg xmlns="http://www.w3.org/2000/svg" xmlns:xlink="http://www.w3.org/1999/xlink" viewBox="0 0 498.15 98.89"><defs><style>.cls-1{fill:url(#linear-gradient);}.cls-2{fill:#060504;}.cls-3{fill:#ff1d25;}.cls-4,.cls-5,.cls-6,.cls-7,.cls-8,.cls-9{fill:#b2afad;}.cls-10,.cls-11{mix-blend-mode:overlay;}.cls-12{fill:url(#radial-gradient-2);}.cls-11{fill:url(#radial-gradient);}.cls-13{fill:url(#linear-gradient-8);}.cls-14{fill:url(#linear-gradient-9);}.cls-15{fill:url(#linear-gradient-3);}.cls-16{fill:url(#linear-gradient-4);}.cls-17{fill:url(#linear-gradient-2);}.cls-18{fill:url(#linear-gradient-6);}.cls-19{fill:url(#linear-gradient-7);}.cls-20{fill:url(#linear-gradient-5);}.cls-21{fill:url(#linear-gradient-10);}.cls-22{fill:url(#linear-gradient-11);}.cls-23{isolation:isolate;}.cls-5{opacity:.5;}.cls-6{opacity:.7;}.cls-7{opacity:.3;}.cls-8{opacity:.4;}.cls-9{opacity:.35;}</style><linearGradient id="linear-gradient" x1="79.65" y1="45.15" x2="65.46" y2="24.08" gradientUnits="userSpaceOnUse"><stop offset="0" stop-color="#bc1522"></stop><stop offset="1" stop-color="#bc1522" stop-opacity="0"></stop></linearGradient><linearGradient id="linear-gradient-2" x1="44.34" y1="11.87" x2="51.66" y2="37.38" xlink:href="#linear-gradient"></linearGradient><linearGradient id="linear-gradient-3" x1="33.26" y1="40.79" x2="25.58" y2="59.28" xlink:href="#linear-gradient"></linearGradient><linearGradient id="linear-gradient-4" x1="58.09" y1="52.38" x2="36.24" y2="44.95" xlink:href="#linear-gradient"></linearGradient><linearGradient id="linear-gradient-5" x1="36.11" y1="51.74" x2="26.35" y2="78.21" xlink:href="#linear-gradient"></linearGradient><linearGradient id="linear-gradient-6" x1="9.44" y1="39.18" x2="44.33" y2="22.77" xlink:href="#linear-gradient"></linearGradient><radialGradient id="radial-gradient" cx="57.83" cy="59.14" fx="57.83" fy="59.14" r="1.69" gradientUnits="userSpaceOnUse"><stop offset="0" stop-color="#fff"></stop><stop offset="1" stop-color="#fff"></stop></radialGradient><linearGradient id="linear-gradient-7" x1="78" y1="29.67" x2="97.78" y2="29.67" gradientUnits="userSpaceOnUse"><stop offset="0" stop-color="#fff"></stop><stop offset="1" stop-color="#fff" stop-opacity="0"></stop></linearGradient><linearGradient id="linear-gradient-8" x1="39.56" x2="59.33" xlink:href="#linear-gradient-7"></linearGradient><linearGradient id="linear-gradient-9" x1="19.78" y1="49.44" x2="39.56" y2="49.44" xlink:href="#linear-gradient-7"></linearGradient><radialGradient id="radial-gradient-2" cx="49.44" cy="49.44" fx="49.44" fy="49.44" r="17.57" gradientUnits="userSpaceOnUse"><stop offset="0" stop-color="#fff"></stop><stop offset="1" stop-color="#fff" stop-opacity="0"></stop></radialGradient><linearGradient id="linear-gradient-10" x1="19.78" y1="69.22" x2="39.56" y2="69.22" xlink:href="#linear-gradient-7"></linearGradient><linearGradient id="linear-gradient-11" x1="19.78" x2="39.56" xlink:href="#linear-gradient-7"></linearGradient></defs><g class="cls-23"><g id="Layer_2"><g id="Layer_1-2"><g><g><g><rect class="cls-9" y="19.78" width="19.78" height="19.77"></rect><rect class="cls-7" y="39.55" width="19.78" height="19.78"></rect><rect class="cls-6" y="59.33" width="19.78" height="19.78"></rect><rect class="cls-8" x="0" y="79.11" width="19.78" height="19.78"></rect><rect class="cls-5" x="19.78" y="79.11" width="19.78" height="19.78"></rect><rect class="cls-5" x="19.78" y="0" width="19.78" height="19.78"></rect><rect class="cls-8" x="39.56" y="0" width="19.78" height="19.78"></rect><rect class="cls-7" x="59.33" y="0" width="19.78" height="19.78"></rect><rect class="cls-5" x="79.11" y="0" width="19.78" height="19.78"></rect><rect class="cls-9" x="79.11" y="19.78" width="19.77" height="19.77"></rect><rect class="cls-6" x="59.33" y="39.55" width="19.78" height="19.78"></rect><rect class="cls-9" x="39.56" y="59.33" width="19.78" height="19.78"></rect></g><g><rect class="cls-3" x="39.56" y="19.78" width="19.78" height="19.77"></rect><rect class="cls-3" x="19.78" y="19.78" width="19.78" height="19.77"></rect><rect class="cls-3" x="59.33" y="19.78" width="19.78" height="19.77"></rect><rect class="cls-3" x="19.78" y="39.55" width="19.78" height="19.78"></rect><rect class="cls-3" x="39.56" y="39.55" width="19.78" height="19.78"></rect><rect class="cls-3" x="19.78" y="59.33" width="19.78" height="19.78"></rect></g><g><rect class="cls-1" x="59.33" y="19.78" width="19.78" height="19.77"></rect><rect class="cls-17" x="39.56" y="19.78" width="19.78" height="19.77"></rect><rect class="cls-15" x="19.78" y="39.55" width="19.78" height="19.78"></rect><rect class="cls-16" x="39.56" y="39.55" width="19.78" height="19.78"></rect><rect class="cls-20" x="19.78" y="59.33" width="19.78" height="19.78"></rect><rect class="cls-18" x="19.78" y="19.78" width="19.78" height="19.77"></rect></g><rect class="cls-11" x="57.63" y="59.33" width="1.7" height=".03"></rect><g class="cls-10"><path class="cls-19" d="M78.11,20.78v17.77h-17.78V20.78h17.78m1-1h-19.78v19.77h19.78V19.78h0Z"></path><path class="cls-13" d="M58.33,20.78v17.77h-17.78V20.78h17.78m1-1h-19.78v19.77h19.78V19.78h0Z"></path><path class="cls-14" d="M38.56,40.55v17.78H20.78v-17.78h17.78m1-1H19.78v19.78h19.78v-19.78h0Z"></path><path class="cls-12" d="M58.33,40.55v17.78h-17.78v-17.78h17.78m1-1h-19.78v19.78h19.78v-19.78h0Z"></path><path class="cls-21" d="M38.56,60.33v17.78H20.78v-17.78h17.78m1-1H19.78v19.78h19.78v-19.78h0Z"></path><path class="cls-22" d="M38.56,20.78v17.77H20.78V20.78h17.78m1-1H19.78v19.77h19.78V19.78h0Z"></path></g></g><g><g><path class="cls-2" d="M168.43,39.8c2.67,0,4.83-2.16,4.83-4.83s-2.16-4.83-4.83-4.83h-24.21c.26-.44,.52-.88,.77-1.3,6.64-11.24,14.09-18,20.99-19.05,3.83-.58,7.36,.65,10.79,3.77,1.98,1.79,5.03,1.64,6.82-.33,1.79-1.97,1.64-5.03-.33-6.82-5.56-5.05-12.03-7.18-18.72-6.17-9.96,1.51-19.6,9.69-27.86,23.68-1.1,1.86-2.31,3.95-3.6,6.22h-10.48c-2.67,0-4.83,2.16-4.83,4.83s2.16,4.83,4.83,4.83h5.04c-12.44,22.33-27.99,51.63-28.18,52-1.25,2.36-.35,5.28,2,6.53,.72,.38,1.49,.56,2.26,.56,1.73,0,3.4-.93,4.27-2.57,.21-.4,18.04-34.01,30.72-56.52h29.74Z"></path><path class="cls-2" d="M495.84,40.67c-24.38-14.88-45.61-2.77-62.67,6.97-2.34,1.33-4.61,2.63-6.8,3.81,.96-3.08,1.66-6.33,2.34-9.43,1.18-5.44,2.65-12.2,5.01-13.81,2.12-1.45,2.73-4.3,1.4-6.49-.98-1.62-2.88-2.73-5.07-2.96-4.66-.5-13.76,1.92-38.69,28.45-7.41,7.88-19.1,11.07-25.69,9.5-2.16-.51-3.45-1.43-3.84-2.73-.33-1.12-.11-2.7,.57-4.49,1.33,.97,2.92,1.64,4.72,1.98,9.68,1.82,23.42-6.37,27.01-14.04,2-4.26,1.14-8.5-2.28-11.33-5.81-4.8-14.22-4.19-23.08,1.67-4.92,3.25-9.52,7.89-12.65,12.9-.08,.12-.18,.22-.26,.34-7.41,12.41-10.9,15.64-12.53,16.06-1.78-1.74,.77-8.07,2.46-12.26,2.52-6.23,5.12-12.67,1.31-17.35-2.06-2.53-4.97-3.85-8.25-3.71-4.64,.19-10.03,3.6-15.31,8.31-.02-.45-.07-.89-.15-1.31-.56-3-2.22-4.66-3.51-5.53-6.71-4.49-13.56-1.57-23.55,8.01-.12-1.99-.79-3.6-2.01-4.91-2.62-2.82-5.45-3.37-7.4-3.34-6.08,.1-10.99,5.75-16.19,11.74-1.36,1.57-2.65,3.05-3.91,4.36-.78,.81-1.62,1.71-2.51,2.67-3.17,3.4-12.81,13.67-16.03,13.37-.13-.12-.49-.49-.49-1.48,0-1.43,.78-3.74,3-5.93,.25-.24,.49-.49,.72-.73,7.8-7.91,12.29-14.24,12.48-14.52,1.53-2.18,1.01-5.19-1.16-6.72-1.81-1.28-4.2-1.13-5.84,.21-.79-1.01-1.78-1.89-2.95-2.59-12.96-7.75-30.49,3.67-38.15,14.83,0,0,0,0,0,0-.56,.74-1.14,1.54-1.75,2.38-7.84,10.72-12.74,15.51-14.56,14.24-1.36-.94-.7-3.29,2.72-9.65,2.7-5.03,5.75-10.72,2.04-15.25l-.22-.27c-1.83-2.22-3.72-4.51-1.52-13.66,.57-2.38-.72-4.81-3.02-5.66s-4.86,.15-5.97,2.33c-7.59,14.87-31.23,53.67-49.24,54.59-2.66,.14-4.71,2.41-4.57,5.07,.13,2.58,2.26,4.58,4.82,4.58,.08,0,.17,0,.25,0,11.8-.6,25.12-11.06,39.59-31.08,3.58-4.95,6.77-9.85,9.43-14.17,.71,1.41,1.55,2.6,2.42,3.68-.35,1.24-1.63,3.62-2.51,5.26-3.21,5.98-8.58,15.98,.28,22.14,6.48,4.5,12.95,.76,18.58-4.98,.96,1.8,2.36,3.4,4.22,4.71,5.36,3.77,12.75,2.27,22.07-4.44,.58,1.53,1.47,2.9,2.65,4.03,1.83,1.78,4.14,2.71,6.69,2.71,.09,0,.18,0,.27,0,7.12-.18,14.56-7.55,22.84-16.43,.86-.92,1.68-1.8,2.43-2.58,1.42-1.48,2.84-3.12,4.22-4.7,2.18-2.51,6.54-7.53,8.63-8.32-.63,3.96-6.64,14.73-13.69,24.36-1.53,2.09-1.14,5.02,.9,6.63,2.03,1.61,4.97,1.33,6.66-.64,12.74-14.86,28.48-33.2,33.44-32.07,.1,3.59-5.37,14.67-12.2,24.7-.39,.56-.74,1.06-1.05,1.51-1.5,2.19-.95,5.18,1.23,6.69,.84,.58,1.8,.86,2.75,.86,1.52,0,3.01-.72,3.95-2.05,.18-.25,.37-.53,.58-.84,1.67-2.38,6.96-9.73,13.07-16.69,11.66-13.25,16.39-13.8,17.07-13.8h.02c-.02,1.56-1.58,5.43-2.54,7.8-2.84,7.03-6.73,16.65-.13,22.9,2.17,2.05,4.92,2.96,7.73,2.57,3.52-.49,6.76-2.88,9.86-6.36,1.96,2.82,5.08,4.84,9.13,5.8,10.91,2.59,25.94-2.69,34.95-12.29,10.6-11.28,17.82-17.56,22.58-21.06-.63,2.3-1.16,4.73-1.7,7.21-1.47,6.76-3.14,14.43-6.76,16.5-1.55,.89-3.86,.84-6.86-.15-2.49-.82-5.19,.5-6.06,2.98s.39,5.2,2.85,6.12c2.52,.95,5.05,1.37,7.6,1.37,9.03,0,18.26-5.27,27.91-10.77,16.39-9.35,33.35-19.03,52.86-7.11,2.27,1.39,5.24,.67,6.64-1.6,1.39-2.28,.67-5.25-1.6-6.64Zm-121.75-4.85c3.7-2.45,8.53-4.33,11.31-2.5-.44,.97-2.02,2.99-5.35,5.13-3.54,2.28-7.55,3.7-10.32,3.61-1.11-.03-1.7-.2-2.02-.76,1.81-1.99,3.96-3.89,6.37-5.48Zm-130.58,7.5c-12.53,12.41-19.63,14.28-21.1,13.25-3.52-2.48-.41-8.11,1.09-10.41,4.75-7.32,13.95-13.68,20.99-13.68,1.68,0,3.25,.37,4.59,1.17,.32,.19,.34,.32,.36,.5,.03,.29,.18,2.91-4.81,8.06-.36,.37-.74,.74-1.12,1.12Z"></path></g><g><path class="cls-4" d="M263.81,83.54c0,2.89-2,4.77-4.72,4.77-1.27,0-2.35-.44-3.08-1.32v1.2h-2.07v-12.92h2.18v4.75c.75-.84,1.79-1.24,2.98-1.24,2.72,0,4.72,1.86,4.72,4.75Zm-2.21,0c0-1.78-1.18-2.91-2.75-2.91s-2.77,1.13-2.77,2.91,1.2,2.91,2.77,2.91,2.75-1.13,2.75-2.91Z"></path><path class="cls-4" d="M273.97,78.89l-4.35,10.05c-.85,2.11-2.04,2.75-3.59,2.75-.92,0-1.9-.31-2.49-.85l.87-1.6c.42,.4,1.01,.64,1.6,.64,.77,0,1.22-.37,1.64-1.29l.16-.37-4.06-9.33h2.26l2.92,6.88,2.94-6.88h2.09Z"></path><path class="cls-4" d="M287.55,85.37h-6.09l-1.2,2.82h-2.33l5.48-12.19h2.23l5.5,12.19h-2.37l-1.22-2.82Zm-.75-1.78l-2.3-5.33-2.28,5.33h4.58Z"></path><path class="cls-4" d="M291.97,82.88v-6.88h2.26v6.79c0,2.51,1.13,3.59,3.1,3.59s3.08-1.08,3.08-3.59v-6.79h2.23v6.88c0,3.55-2,5.48-5.33,5.48s-5.34-1.93-5.34-5.48Z"></path><path class="cls-4" d="M307.71,77.91h-4.04v-1.92h10.34v1.92h-4.04v10.27h-2.26v-10.27Z"></path><path class="cls-4" d="M314.32,82.09c0-3.6,2.79-6.27,6.56-6.27s6.56,2.65,6.56,6.27-2.79,6.27-6.56,6.27-6.56-2.66-6.56-6.27Zm10.85,0c0-2.49-1.83-4.28-4.28-4.28s-4.28,1.79-4.28,4.28,1.83,4.28,4.28,4.28,4.28-1.79,4.28-4.28Z"></path><path class="cls-4" d="M340.7,88.19l-.02-8.08-4,6.69h-1.01l-4-6.58v7.97h-2.16v-12.19h1.86l4.84,8.08,4.75-8.08h1.86l.02,12.19h-2.14Z"></path><path class="cls-4" d="M353.68,85.37h-6.09l-1.2,2.82h-2.33l5.48-12.19h2.23l5.5,12.19h-2.37l-1.22-2.82Zm-.75-1.78l-2.3-5.33-2.28,5.33h4.58Z"></path><path class="cls-4" d="M360.33,77.91h-4.04v-1.92h10.34v1.92h-4.04v10.27h-2.26v-10.27Z"></path><path class="cls-4" d="M367.99,76h2.26v12.19h-2.26v-12.19Z"></path><path class="cls-4" d="M372.32,82.09c0-3.64,2.79-6.27,6.53-6.27,1.98,0,3.69,.71,4.82,2.04l-1.46,1.38c-.89-.96-1.99-1.43-3.26-1.43-2.52,0-4.35,1.78-4.35,4.28s1.83,4.28,4.35,4.28c1.27,0,2.37-.47,3.26-1.45l1.46,1.39c-1.13,1.32-2.84,2.04-4.84,2.04-3.73,0-6.51-2.63-6.51-6.27Z"></path><path class="cls-4" d="M384.79,86.86c0-.87,.64-1.45,1.43-1.45s1.43,.58,1.43,1.45-.64,1.45-1.43,1.45-1.43-.61-1.43-1.45Z"></path><path class="cls-4" d="M388.41,82.09c0-3.64,2.79-6.27,6.53-6.27,1.98,0,3.69,.71,4.82,2.04l-1.46,1.38c-.89-.96-1.99-1.43-3.26-1.43-2.52,0-4.35,1.78-4.35,4.28s1.83,4.28,4.35,4.28c1.27,0,2.37-.47,3.26-1.45l1.46,1.39c-1.13,1.32-2.84,2.04-4.84,2.04-3.73,0-6.51-2.63-6.51-6.27Z"></path><path class="cls-4" d="M400.49,86.9l.78-1.76c.98,.78,2.52,1.34,4.02,1.34,1.9,0,2.7-.68,2.7-1.58,0-2.63-7.24-.91-7.24-5.43,0-1.97,1.57-3.64,4.91-3.64,1.46,0,2.99,.38,4.06,1.08l-.71,1.76c-1.1-.64-2.3-.96-3.36-.96-1.88,0-2.65,.73-2.65,1.65,0,2.59,7.23,.91,7.23,5.38,0,1.95-1.58,3.62-4.93,3.62-1.9,0-3.8-.59-4.81-1.46Z"></path><path class="cls-4" d="M411.09,86.9l.78-1.76c.98,.78,2.52,1.34,4.02,1.34,1.9,0,2.7-.68,2.7-1.58,0-2.63-7.24-.91-7.24-5.43,0-1.97,1.57-3.64,4.91-3.64,1.46,0,2.99,.38,4.06,1.08l-.71,1.76c-1.1-.64-2.3-.96-3.36-.96-1.88,0-2.65,.73-2.65,1.65,0,2.59,7.23,.91,7.23,5.38,0,1.95-1.58,3.62-4.93,3.62-1.9,0-3.8-.59-4.81-1.46Z"></path></g></g></g></g></g></g></svg> 