<?xml version="1.0" encoding="UTF-8"?> <svg xmlns="http://www.w3.org/2000/svg" width="143" height="180" viewBox="0 0 143 180" fill="none"><path fill-rule="evenodd" clip-rule="evenodd" d="M133.745 27.6274H9.07507V152.298H133.745V27.6274ZM0.0750732 18.6274V161.298H142.745V18.6274H0.0750732Z" fill="#212224"></path><path d="M17.58 0.904785H125.241V179.02H17.58V0.904785Z" fill="#FFD64F"></path><path d="M62.4139 28.0806V83.9626H50.8998V28.0806H62.4139ZM84.6746 51.9532V60.9343H59.2667V51.9532H84.6746ZM87.3613 28.0806V37.1H59.2667V28.0806H87.3613Z" fill="#212224"></path><path d="M72.7767 130.437H58.4224L58.3456 122.531H70.3971C73.5443 122.531 75.8727 121.93 77.3823 120.727C78.9176 119.499 79.6852 117.721 79.6852 115.392C79.6852 112.808 78.9304 110.953 77.4207 109.827C75.9367 108.676 73.5955 108.1 70.3971 108.1H62.4139V154.963H50.8998V99.0806H70.3971C76.8962 99.0806 81.988 100.322 85.6725 102.803C89.3571 105.285 91.1993 109.123 91.1993 114.318C91.1993 116.62 90.6748 118.744 89.6257 120.689C88.6022 122.633 86.9775 124.22 84.7514 125.448C82.5509 126.676 79.6724 127.354 76.1158 127.482L72.7767 130.437ZM72.2777 154.963H55.2752L59.7657 145.982H72.2777C75.2714 145.982 77.4719 145.278 78.8792 143.871C80.2865 142.438 80.9901 140.634 80.9901 138.459C80.9901 136.821 80.7087 135.401 80.1457 134.199C79.6084 132.996 78.7384 132.075 77.5359 131.435C76.3333 130.77 74.7469 130.437 72.7767 130.437H61.6847L61.7615 122.531H75.5785L78.2267 125.64C81.6298 125.589 84.3676 126.19 86.4401 127.444C88.5383 128.672 90.0607 130.271 91.0074 132.241C91.9797 134.212 92.4659 136.322 92.4659 138.574C92.4659 143.947 90.7132 148.029 87.2078 150.818C83.7279 153.581 78.7512 154.963 72.2777 154.963Z" fill="#212224"></path></svg> 