<svg id="Capa_1" enable-background="new 0 0 508.992 508.992" viewBox="0 0 508.992 508.992" xmlns="http://www.w3.org/2000/svg">
    <g>
        <path d="m201.888 487.911c-26.225-29.716-40.086-65.188-40.086-102.582 0-24.308 6.869-48.014 19.865-68.554 13.39-21.164 20.468-45.588 20.468-70.633v-42.372h-62.5v-15c0-46.136 34.896-84.267 79.678-89.404v-99.366l-18.106 3.833c-50.209 10.629-95.642 35.918-131.386 73.134-35.842 37.316-60.35 90.202-68.867 140.986l42.913 57.507-39.365 35.018 2.334 8.902c26.796 102.167 113.378 176.316 216.284 188.966-7.679-6.335-14.812-13.161-21.232-20.435z" />
        <path d="m440.733 387.99c-35.059-37.634-84.662-59.22-136.098-59.22h-15v-200h-60.001c-27.906 0-51.424 19.15-58.101 45h60.602v72.371c0 30.732-8.685 60.703-25.116 86.673-9.955 15.734-15.217 33.893-15.217 52.514 0 58.176 41.469 101.707 88.192 123.663 27.779-2.769 54.435-10.01 79.136-21.079-67.327 0-111.142-47.552-111.142-106h30c0 41.906 34.094 76 76 76h55.639c18.645-14.194 35.34-30.932 49.534-49.791z" />
        <path d="m508.038 218.325c-8.452-50.87-32.926-103.83-68.791-141.224-35.764-37.289-81.243-62.625-131.517-73.268l-18.107-3.833v98.77h77.512v30h-47.5v170.527c54.315 3.818 105.802 28.232 143.099 68.298l.085.092 13.407 14.647c11.245-19.468 20.052-40.654 25.942-63.208l2.322-8.894-39.087-34.772z" />
    </g>
</svg>